<svg xmlns="http://www.w3.org/2000/svg" viewBox="0 0 512 512">
  <defs>
    <linearGradient id="bg" x1="0%" y1="0%" x2="100%" y2="100%">
      <stop offset="0%" style="stop-color:#6366f1"/>
      <stop offset="100%" style="stop-color:#8b5cf6"/>
    </linearGradient>
  </defs>
  <!-- Background -->
  <rect width="512" height="512" rx="100" fill="url(#bg)"/>
  <!-- ECG Line -->
  <path d="M80 256 L160 256 L200 256 L230 180 L260 340 L290 200 L320 300 L350 256 L430 256" 
        stroke="white" stroke-width="24" stroke-linecap="round" stroke-linejoin="round" fill="none"/>
  <!-- Heart -->
  <path d="M256 420 C180 360 120 300 120 230 C120 180 160 140 210 140 C240 140 256 160 256 160 C256 160 272 140 302 140 C352 140 392 180 392 230 C392 300 332 360 256 420Z" 
        fill="rgba(255,255,255,0.2)" stroke="white" stroke-width="8"/>
</svg>
